<svg xmlns="http://www.w3.org/2000/svg" xmlns:xlink="http://www.w3.org/1999/xlink" width="250" zoomAndPan="magnify" viewBox="0 0 187.5 74.999997" height="100" preserveAspectRatio="xMidYMid meet" version="1.0"><defs><g/><clipPath id="bdf4952495"><path d="M 76 9 L 92 9 L 92 51 L 76 51 Z M 76 9 " clip-rule="nonzero"/></clipPath><clipPath id="77338fbc13"><path d="M 62.648438 22.660156 L 90.253906 7.664062 L 105.605469 35.925781 L 78 50.921875 Z M 62.648438 22.660156 " clip-rule="nonzero"/></clipPath><clipPath id="e0ab4d8ec1"><path d="M 62.648438 22.660156 L 90.253906 7.664062 L 105.605469 35.925781 L 78 50.921875 Z M 62.648438 22.660156 " clip-rule="nonzero"/></clipPath><clipPath id="ac868c2c80"><path d="M 77 34 L 84 34 L 84 50 L 77 50 Z M 77 34 " clip-rule="nonzero"/></clipPath><clipPath id="50e9b68f89"><path d="M 62.648438 22.660156 L 90.253906 7.664062 L 105.605469 35.925781 L 78 50.921875 Z M 62.648438 22.660156 " clip-rule="nonzero"/></clipPath><clipPath id="a9d5bad014"><path d="M 62.648438 22.660156 L 90.253906 7.664062 L 105.605469 35.925781 L 78 50.921875 Z M 62.648438 22.660156 " clip-rule="nonzero"/></clipPath><clipPath id="e1013f85e3"><path d="M 88 9 L 91 9 L 91 19 L 88 19 Z M 88 9 " clip-rule="nonzero"/></clipPath><clipPath id="41a15bab5d"><path d="M 62.648438 22.660156 L 90.253906 7.664062 L 105.605469 35.925781 L 78 50.921875 Z M 62.648438 22.660156 " clip-rule="nonzero"/></clipPath><clipPath id="14cc50c104"><path d="M 62.648438 22.660156 L 90.253906 7.664062 L 105.605469 35.925781 L 78 50.921875 Z M 62.648438 22.660156 " clip-rule="nonzero"/></clipPath><clipPath id="ba492cf849"><path d="M 87 9 L 90 9 L 90 18 L 87 18 Z M 87 9 " clip-rule="nonzero"/></clipPath><clipPath id="b3beae3c40"><path d="M 62.648438 22.660156 L 90.253906 7.664062 L 105.605469 35.925781 L 78 50.921875 Z M 62.648438 22.660156 " clip-rule="nonzero"/></clipPath><clipPath id="69a4454c12"><path d="M 62.648438 22.660156 L 90.253906 7.664062 L 105.605469 35.925781 L 78 50.921875 Z M 62.648438 22.660156 " clip-rule="nonzero"/></clipPath><clipPath id="2ff13809a3"><path d="M 89 9 L 92 9 L 92 18 L 89 18 Z M 89 9 " clip-rule="nonzero"/></clipPath><clipPath id="44c90f34ff"><path d="M 62.648438 22.660156 L 90.253906 7.664062 L 105.605469 35.925781 L 78 50.921875 Z M 62.648438 22.660156 " clip-rule="nonzero"/></clipPath><clipPath id="ae029d29a6"><path d="M 62.648438 22.660156 L 90.253906 7.664062 L 105.605469 35.925781 L 78 50.921875 Z M 62.648438 22.660156 " clip-rule="nonzero"/></clipPath><clipPath id="439f74d1e5"><path d="M 86 17 L 88 17 L 88 20 L 86 20 Z M 86 17 " clip-rule="nonzero"/></clipPath><clipPath id="9baf641a99"><path d="M 62.648438 22.660156 L 90.253906 7.664062 L 105.605469 35.925781 L 78 50.921875 Z M 62.648438 22.660156 " clip-rule="nonzero"/></clipPath><clipPath id="71d5672f67"><path d="M 62.648438 22.660156 L 90.253906 7.664062 L 105.605469 35.925781 L 78 50.921875 Z M 62.648438 22.660156 " clip-rule="nonzero"/></clipPath><clipPath id="57b2e0b066"><path d="M 89 18 L 91 18 L 91 20 L 89 20 Z M 89 18 " clip-rule="nonzero"/></clipPath><clipPath id="f36fdc4087"><path d="M 62.648438 22.660156 L 90.253906 7.664062 L 105.605469 35.925781 L 78 50.921875 Z M 62.648438 22.660156 " clip-rule="nonzero"/></clipPath><clipPath id="4f568d245b"><path d="M 62.648438 22.660156 L 90.253906 7.664062 L 105.605469 35.925781 L 78 50.921875 Z M 62.648438 22.660156 " clip-rule="nonzero"/></clipPath><clipPath id="8004ba053c"><path d="M 83 33 L 84 33 L 84 35 L 83 35 Z M 83 33 " clip-rule="nonzero"/></clipPath><clipPath id="95d87866bc"><path d="M 62.648438 22.660156 L 90.253906 7.664062 L 105.605469 35.925781 L 78 50.921875 Z M 62.648438 22.660156 " clip-rule="nonzero"/></clipPath><clipPath id="fd5b5ce967"><path d="M 62.648438 22.660156 L 90.253906 7.664062 L 105.605469 35.925781 L 78 50.921875 Z M 62.648438 22.660156 " clip-rule="nonzero"/></clipPath><clipPath id="1946dd0bb0"><path d="M 90 18 L 91 18 L 91 20 L 90 20 Z M 90 18 " clip-rule="nonzero"/></clipPath><clipPath id="a8dd4cae27"><path d="M 62.648438 22.660156 L 90.253906 7.664062 L 105.605469 35.925781 L 78 50.921875 Z M 62.648438 22.660156 " clip-rule="nonzero"/></clipPath><clipPath id="fee74204ba"><path d="M 62.648438 22.660156 L 90.253906 7.664062 L 105.605469 35.925781 L 78 50.921875 Z M 62.648438 22.660156 " clip-rule="nonzero"/></clipPath><clipPath id="8f95690d2a"><path d="M 89 18 L 91 18 L 91 20 L 89 20 Z M 89 18 " clip-rule="nonzero"/></clipPath><clipPath id="91c61fecc9"><path d="M 62.648438 22.660156 L 90.253906 7.664062 L 105.605469 35.925781 L 78 50.921875 Z M 62.648438 22.660156 " clip-rule="nonzero"/></clipPath><clipPath id="a4c7b713c6"><path d="M 62.648438 22.660156 L 90.253906 7.664062 L 105.605469 35.925781 L 78 50.921875 Z M 62.648438 22.660156 " clip-rule="nonzero"/></clipPath><clipPath id="ff3858bcea"><path d="M 87 18 L 88 18 L 88 20 L 87 20 Z M 87 18 " clip-rule="nonzero"/></clipPath><clipPath id="7d84152b8e"><path d="M 62.648438 22.660156 L 90.253906 7.664062 L 105.605469 35.925781 L 78 50.921875 Z M 62.648438 22.660156 " clip-rule="nonzero"/></clipPath><clipPath id="dc67272c83"><path d="M 62.648438 22.660156 L 90.253906 7.664062 L 105.605469 35.925781 L 78 50.921875 Z M 62.648438 22.660156 " clip-rule="nonzero"/></clipPath><clipPath id="a7ebdb8b58"><path d="M 83 32 L 84 32 L 84 34 L 83 34 Z M 83 32 " clip-rule="nonzero"/></clipPath><clipPath id="3888957460"><path d="M 62.648438 22.660156 L 90.253906 7.664062 L 105.605469 35.925781 L 78 50.921875 Z M 62.648438 22.660156 " clip-rule="nonzero"/></clipPath><clipPath id="7eb5b3e0ff"><path d="M 62.648438 22.660156 L 90.253906 7.664062 L 105.605469 35.925781 L 78 50.921875 Z M 62.648438 22.660156 " clip-rule="nonzero"/></clipPath><clipPath id="e0e90349fd"><path d="M 87 18 L 88 18 L 88 19 L 87 19 Z M 87 18 " clip-rule="nonzero"/></clipPath><clipPath id="b4b90616a6"><path d="M 62.648438 22.660156 L 90.253906 7.664062 L 105.605469 35.925781 L 78 50.921875 Z M 62.648438 22.660156 " clip-rule="nonzero"/></clipPath><clipPath id="cf66fa41ed"><path d="M 62.648438 22.660156 L 90.253906 7.664062 L 105.605469 35.925781 L 78 50.921875 Z M 62.648438 22.660156 " clip-rule="nonzero"/></clipPath><clipPath id="dd88097538"><path d="M 89 18 L 90 18 L 90 20 L 89 20 Z M 89 18 " clip-rule="nonzero"/></clipPath><clipPath id="c66d5a485c"><path d="M 62.648438 22.660156 L 90.253906 7.664062 L 105.605469 35.925781 L 78 50.921875 Z M 62.648438 22.660156 " clip-rule="nonzero"/></clipPath><clipPath id="b0a3188d83"><path d="M 62.648438 22.660156 L 90.253906 7.664062 L 105.605469 35.925781 L 78 50.921875 Z M 62.648438 22.660156 " clip-rule="nonzero"/></clipPath><clipPath id="df3cf04115"><path d="M 87 18 L 89 18 L 89 19 L 87 19 Z M 87 18 " clip-rule="nonzero"/></clipPath><clipPath id="a8de949ba4"><path d="M 62.648438 22.660156 L 90.253906 7.664062 L 105.605469 35.925781 L 78 50.921875 Z M 62.648438 22.660156 " clip-rule="nonzero"/></clipPath><clipPath id="b87aa8b59f"><path d="M 62.648438 22.660156 L 90.253906 7.664062 L 105.605469 35.925781 L 78 50.921875 Z M 62.648438 22.660156 " clip-rule="nonzero"/></clipPath><clipPath id="5eb5923311"><path d="M 88 18 L 89 18 L 89 19 L 88 19 Z M 88 18 " clip-rule="nonzero"/></clipPath><clipPath id="6dff70ea2f"><path d="M 62.648438 22.660156 L 90.253906 7.664062 L 105.605469 35.925781 L 78 50.921875 Z M 62.648438 22.660156 " clip-rule="nonzero"/></clipPath><clipPath id="9faf57c5f3"><path d="M 62.648438 22.660156 L 90.253906 7.664062 L 105.605469 35.925781 L 78 50.921875 Z M 62.648438 22.660156 " clip-rule="nonzero"/></clipPath></defs><g fill="#65a30d" fill-opacity="1"><g transform="translate(32.192614, 46.51083)"><g><path d="M -1.375 0 L 3.140625 -19.609375 L 11 -19.609375 L 10.125 -15.796875 L 6.21875 -15.796875 L 5.5 -12.671875 L 9.1875 -12.671875 L 8.328125 -8.90625 L 4.625 -8.90625 L 2.578125 0 Z M -1.375 0 "/></g></g></g><g fill="#65a30d" fill-opacity="1"><g transform="translate(41.298904, 46.51083)"><g><path d="M 3.25 0.1875 C 1.675781 0.1875 0.585938 -0.296875 -0.015625 -1.265625 C -0.617188 -2.234375 -0.710938 -3.59375 -0.296875 -5.34375 L 1.84375 -14.671875 C 2.238281 -16.367188 2.945312 -17.644531 3.96875 -18.5 C 4.988281 -19.363281 6.289062 -19.796875 7.875 -19.796875 C 9.457031 -19.796875 10.554688 -19.363281 11.171875 -18.5 C 11.796875 -17.644531 11.910156 -16.367188 11.515625 -14.671875 L 9.375 -5.34375 C 8.96875 -3.570312 8.238281 -2.207031 7.1875 -1.25 C 6.144531 -0.289062 4.832031 0.1875 3.25 0.1875 Z M 4.078125 -3.421875 C 4.429688 -3.421875 4.707031 -3.570312 4.90625 -3.875 C 5.101562 -4.1875 5.257812 -4.613281 5.375 -5.15625 L 7.59375 -14.75 C 7.6875 -15.175781 7.707031 -15.519531 7.65625 -15.78125 C 7.613281 -16.050781 7.414062 -16.1875 7.0625 -16.1875 C 6.414062 -16.1875 5.976562 -15.691406 5.75 -14.703125 L 3.53125 -5.140625 C 3.394531 -4.578125 3.359375 -4.148438 3.421875 -3.859375 C 3.492188 -3.566406 3.710938 -3.421875 4.078125 -3.421875 Z M 4.078125 -3.421875 "/></g></g></g><g fill="#65a30d" fill-opacity="1"><g transform="translate(52.390779, 46.51083)"><g><path d="M 3.140625 -19.609375 L 9.171875 -19.609375 C 10.128906 -19.609375 10.820312 -19.390625 11.25 -18.953125 C 11.675781 -18.523438 11.890625 -17.914062 11.890625 -17.125 C 11.890625 -16.34375 11.75 -15.34375 11.46875 -14.125 C 11.21875 -13.019531 10.875 -12.15625 10.4375 -11.53125 C 10 -10.90625 9.394531 -10.472656 8.625 -10.234375 C 9.1875 -10.109375 9.546875 -9.804688 9.703125 -9.328125 C 9.867188 -8.859375 9.859375 -8.222656 9.671875 -7.421875 L 7.921875 0 L 4.078125 0 L 5.84375 -7.671875 C 5.976562 -8.210938 5.953125 -8.5625 5.765625 -8.71875 C 5.585938 -8.875 5.21875 -8.953125 4.65625 -8.953125 L 2.59375 0 L -1.375 0 Z M 6.40625 -12.34375 C 6.957031 -12.34375 7.367188 -12.9375 7.640625 -14.125 C 7.765625 -14.644531 7.828125 -15.035156 7.828125 -15.296875 C 7.835938 -15.554688 7.789062 -15.734375 7.6875 -15.828125 C 7.59375 -15.929688 7.429688 -15.984375 7.203125 -15.984375 L 6.296875 -15.984375 L 5.46875 -12.34375 Z M 6.40625 -12.34375 "/></g></g></g><g fill="#65a30d" fill-opacity="1"><g transform="translate(63.277251, 46.51083)"><g><path d="M -1.375 0 L 3.140625 -19.609375 L 7.03125 -19.609375 L 5.21875 -11.75 L 8.84375 -19.609375 L 12.796875 -19.609375 L 8.53125 -10.640625 L 8.734375 0 L 4.671875 0 L 4.71875 -9.5 L 2.53125 0 Z M -1.375 0 "/></g></g></g><g fill="#65a30d" fill-opacity="1"><g transform="translate(74.050757, 46.51083)"><g/></g></g><g fill="#65a30d" fill-opacity="1"><g transform="translate(79.391288, 46.51083)"><g/></g></g><g fill="#65a30d" fill-opacity="1"><g transform="translate(84.731819, 46.51083)"><g/></g></g><g fill="#65a30d" fill-opacity="1"><g transform="translate(90.073149, 46.51083)"><g><path d="M 3.140625 -19.609375 L 9.171875 -19.609375 C 10.128906 -19.609375 10.820312 -19.390625 11.25 -18.953125 C 11.675781 -18.523438 11.890625 -17.914062 11.890625 -17.125 C 11.890625 -16.34375 11.75 -15.34375 11.46875 -14.125 C 11.21875 -13.019531 10.875 -12.15625 10.4375 -11.53125 C 10 -10.90625 9.394531 -10.472656 8.625 -10.234375 C 9.1875 -10.109375 9.546875 -9.804688 9.703125 -9.328125 C 9.867188 -8.859375 9.859375 -8.222656 9.671875 -7.421875 L 7.921875 0 L 4.078125 0 L 5.84375 -7.671875 C 5.976562 -8.210938 5.953125 -8.5625 5.765625 -8.71875 C 5.585938 -8.875 5.21875 -8.953125 4.65625 -8.953125 L 2.59375 0 L -1.375 0 Z M 6.40625 -12.34375 C 6.957031 -12.34375 7.367188 -12.9375 7.640625 -14.125 C 7.765625 -14.644531 7.828125 -15.035156 7.828125 -15.296875 C 7.835938 -15.554688 7.789062 -15.734375 7.6875 -15.828125 C 7.59375 -15.929688 7.429688 -15.984375 7.203125 -15.984375 L 6.296875 -15.984375 L 5.46875 -12.34375 Z M 6.40625 -12.34375 "/></g></g></g><g fill="#65a30d" fill-opacity="1"><g transform="translate(100.959621, 46.51083)"><g><path d="M 3.140625 0.1875 C 1.523438 0.1875 0.4375 -0.269531 -0.125 -1.1875 C -0.695312 -2.101562 -0.78125 -3.457031 -0.375 -5.25 L 2.9375 -19.609375 L 6.75 -19.609375 L 3.46875 -5.40625 C 3.320312 -4.78125 3.269531 -4.289062 3.3125 -3.9375 C 3.351562 -3.59375 3.570312 -3.421875 3.96875 -3.421875 C 4.363281 -3.421875 4.660156 -3.59375 4.859375 -3.9375 C 5.066406 -4.28125 5.238281 -4.769531 5.375 -5.40625 L 8.671875 -19.609375 L 12.484375 -19.609375 L 9.171875 -5.25 C 8.753906 -3.457031 8.046875 -2.101562 7.046875 -1.1875 C 6.054688 -0.269531 4.753906 0.1875 3.140625 0.1875 Z M 3.140625 0.1875 "/></g></g></g><g fill="#65a30d" fill-opacity="1"><g transform="translate(111.777621, 46.51083)"><g><path d="M -1.375 0 L 3.140625 -19.609375 L 7.1875 -19.609375 L 6.8125 -10.234375 L 8.984375 -19.609375 L 12.78125 -19.609375 L 8.25 0 L 4.421875 0 L 4.71875 -9.8125 L 2.453125 0 Z M -1.375 0 "/></g></g></g><g fill="#65a30d" fill-opacity="1"><g transform="translate(123.14337, 46.51083)"><g><path d="M -1.375 0 L 3.140625 -19.609375 L 7.1875 -19.609375 L 6.8125 -10.234375 L 8.984375 -19.609375 L 12.78125 -19.609375 L 8.25 0 L 4.421875 0 L 4.71875 -9.8125 L 2.453125 0 Z M -1.375 0 "/></g></g></g><g fill="#65a30d" fill-opacity="1"><g transform="translate(134.50912, 46.51083)"><g><path d="M -1.375 0 L 3.140625 -19.609375 L 11 -19.609375 L 10.125 -15.8125 L 6.265625 -15.8125 L 5.375 -12 L 9.078125 -12 L 8.234375 -8.3125 L 4.53125 -8.3125 L 3.484375 -3.8125 L 7.59375 -3.8125 L 6.734375 0 Z M -1.375 0 "/></g></g></g><g fill="#65a30d" fill-opacity="1"><g transform="translate(143.912109, 46.51083)"><g><path d="M 3.140625 -19.609375 L 9.171875 -19.609375 C 10.128906 -19.609375 10.820312 -19.390625 11.25 -18.953125 C 11.675781 -18.523438 11.890625 -17.914062 11.890625 -17.125 C 11.890625 -16.34375 11.75 -15.34375 11.46875 -14.125 C 11.21875 -13.019531 10.875 -12.15625 10.4375 -11.53125 C 10 -10.90625 9.394531 -10.472656 8.625 -10.234375 C 9.1875 -10.109375 9.546875 -9.804688 9.703125 -9.328125 C 9.867188 -8.859375 9.859375 -8.222656 9.671875 -7.421875 L 7.921875 0 L 4.078125 0 L 5.84375 -7.671875 C 5.976562 -8.210938 5.953125 -8.5625 5.765625 -8.71875 C 5.585938 -8.875 5.21875 -8.953125 4.65625 -8.953125 L 2.59375 0 L -1.375 0 Z M 6.40625 -12.34375 C 6.957031 -12.34375 7.367188 -12.9375 7.640625 -14.125 C 7.765625 -14.644531 7.828125 -15.035156 7.828125 -15.296875 C 7.835938 -15.554688 7.789062 -15.734375 7.6875 -15.828125 C 7.59375 -15.929688 7.429688 -15.984375 7.203125 -15.984375 L 6.296875 -15.984375 L 5.46875 -12.34375 Z M 6.40625 -12.34375 "/></g></g></g><path stroke-linecap="butt" transform="matrix(0.748005, 0.000000000000000051, -0.000000000000000051, 0.748005, 5.701485, 30.001119)" fill="none" stroke-linejoin="miter" d="M 0.0021926 1.001171 L 206.467979 1.001171 " stroke="#ffffff" stroke-width="2" stroke-opacity="1" stroke-miterlimit="4"/><g clip-path="url(#bdf4952495)"><g clip-path="url(#77338fbc13)"><g clip-path="url(#e0ab4d8ec1)"><path fill="#65a30d" d="M 78.167969 49.519531 C 78.582031 49.542969 78.941406 49.386719 79.265625 49.144531 C 79.730469 48.804688 80.066406 48.351562 80.285156 47.828125 C 80.652344 46.964844 81.007812 46.097656 81.335938 45.222656 C 81.566406 44.609375 81.730469 43.96875 81.964844 43.351562 C 82.34375 42.363281 82.425781 41.316406 82.683594 40.308594 C 82.847656 39.640625 83.011719 38.972656 83.140625 38.292969 C 83.339844 37.234375 83.554688 36.175781 83.683594 35.101562 C 83.835938 33.820312 84.125 32.574219 84.445312 31.332031 C 84.980469 29.246094 85.53125 27.160156 86.101562 25.085938 C 86.289062 24.429688 86.582031 23.800781 86.808594 23.152344 C 87 22.617188 87.300781 22.160156 87.742188 21.816406 C 88.007812 21.617188 88.296875 21.429688 88.59375 21.292969 C 89.261719 20.988281 89.808594 20.527344 90.289062 19.996094 C 90.699219 19.539062 90.996094 18.996094 91.113281 18.378906 C 91.148438 18.210938 91.046875 18.195312 90.941406 18.179688 C 90.707031 18.136719 90.542969 17.972656 90.5625 17.738281 C 90.578125 17.535156 90.621094 17.335938 90.660156 17.136719 C 90.683594 17.007812 90.78125 16.941406 90.917969 16.925781 C 91.023438 16.914062 91.121094 16.894531 91.21875 16.886719 C 91.410156 14.351562 91.199219 11.824219 91.171875 9.292969 C 91.203125 9.285156 91.234375 9.273438 91.269531 9.269531 C 91.3125 9.339844 91.386719 9.40625 91.394531 9.472656 C 91.453125 9.878906 91.519531 10.285156 91.546875 10.6875 C 91.59375 11.347656 91.625 12.011719 91.644531 12.671875 C 91.679688 13.679688 91.726562 14.679688 91.722656 15.683594 C 91.71875 16.445312 91.675781 17.214844 91.601562 17.980469 C 91.5 18.980469 91.132812 19.894531 90.609375 20.746094 C 90.433594 21.03125 90.179688 21.21875 89.898438 21.394531 C 89.332031 21.753906 88.769531 22.117188 88.226562 22.507812 C 87.777344 22.832031 87.5 23.3125 87.308594 23.816406 C 86.734375 25.320312 86.292969 26.863281 85.871094 28.417969 C 85.628906 29.304688 85.316406 30.175781 85.101562 31.070312 C 84.816406 32.234375 84.609375 33.414062 84.335938 34.578125 C 84 35.996094 83.882812 37.453125 83.582031 38.875 C 83.265625 40.378906 82.910156 41.882812 82.546875 43.371094 C 82.320312 44.316406 82.027344 45.242188 81.792969 46.183594 C 81.546875 47.210938 81.171875 48.179688 80.566406 49.046875 C 80.351562 49.351562 80.089844 49.640625 79.808594 49.886719 C 79.441406 50.21875 78.972656 50.152344 78.523438 50.09375 C 78.382812 50.078125 78.238281 50.023438 78.101562 49.964844 C 77.996094 49.914062 77.910156 49.8125 77.8125 49.742188 C 77.75 49.695312 77.683594 49.625 77.617188 49.628906 C 77.355469 49.632812 77.226562 49.46875 77.121094 49.277344 C 76.953125 48.964844 76.917969 48.621094 76.910156 48.269531 C 76.898438 47.464844 77.121094 46.714844 77.394531 45.96875 C 78.105469 44.007812 78.933594 42.09375 79.777344 40.1875 C 80.25 39.125 80.65625 38.042969 81.105469 36.972656 C 81.339844 36.40625 81.613281 35.855469 81.863281 35.292969 C 82.046875 34.894531 82.257812 34.5 82.414062 34.085938 C 82.59375 33.632812 82.730469 33.160156 82.863281 32.691406 C 83.4375 30.648438 83.964844 28.589844 84.578125 26.550781 C 84.984375 25.199219 85.496094 23.878906 85.964844 22.542969 C 85.980469 22.503906 85.992188 22.46875 86.007812 22.433594 C 86.082031 22.230469 86.136719 22.0625 86.011719 21.820312 C 85.707031 21.21875 85.757812 20.5625 85.894531 19.917969 C 85.949219 19.644531 86.03125 19.375 86.140625 19.125 C 86.355469 18.628906 86.417969 18.097656 86.519531 17.574219 C 86.804688 16.125 86.898438 14.652344 87.003906 13.191406 C 87.085938 12.050781 87.164062 10.902344 87.246094 9.757812 C 87.257812 9.589844 87.296875 9.421875 87.316406 9.257812 C 87.335938 9.253906 87.359375 9.25 87.382812 9.253906 C 87.390625 9.3125 87.417969 9.375 87.414062 9.433594 C 87.367188 10.5625 87.335938 11.691406 87.261719 12.816406 C 87.167969 14.183594 87.0625 15.550781 86.90625 16.910156 C 86.8125 17.742188 86.667969 18.582031 86.386719 19.386719 C 86.265625 19.730469 86.234375 20.105469 86.183594 20.46875 C 86.117188 20.9375 86.296875 21.359375 86.453125 21.785156 C 86.484375 21.871094 86.5 21.988281 86.472656 22.078125 C 86.355469 22.453125 86.226562 22.832031 86.097656 23.207031 C 85.707031 24.359375 85.257812 25.496094 84.921875 26.660156 C 84.3125 28.757812 83.765625 30.878906 83.191406 32.984375 C 83.105469 33.300781 83.039062 33.636719 82.890625 33.921875 C 82.707031 34.261719 82.585938 34.617188 82.4375 34.960938 C 81.527344 37.101562 80.585938 39.234375 79.707031 41.390625 C 79 43.117188 78.359375 44.871094 77.714844 46.628906 C 77.480469 47.257812 77.363281 47.917969 77.386719 48.597656 C 77.394531 48.753906 77.421875 48.914062 77.472656 49.0625 C 77.582031 49.386719 77.765625 49.492188 78.113281 49.46875 C 78.128906 49.503906 78.148438 49.511719 78.167969 49.519531 Z M 78.710938 49.832031 C 79.054688 49.835938 79.375 49.855469 79.617188 49.632812 C 79.949219 49.328125 80.261719 48.996094 80.46875 48.585938 C 80.492188 48.542969 80.484375 48.488281 80.488281 48.445312 C 80.015625 49.070312 79.515625 49.605469 78.710938 49.832031 Z M 78.710938 49.832031 " fill-opacity="1" fill-rule="nonzero"/></g></g></g><g clip-path="url(#ac868c2c80)"><g clip-path="url(#50e9b68f89)"><g clip-path="url(#a9d5bad014)"><path fill="#65a30d" d="M 78.167969 49.519531 C 78.152344 49.515625 78.128906 49.503906 78.113281 49.5 C 77.90625 49.398438 77.894531 49.316406 78.074219 49.167969 C 78.085938 49.15625 78.101562 49.15625 78.113281 49.140625 C 78.5 48.636719 78.925781 48.15625 79.261719 47.625 C 79.59375 47.09375 79.6875 46.457031 79.824219 45.847656 C 79.84375 45.75 79.863281 45.652344 79.847656 45.542969 C 79.742188 45.789062 79.636719 46.039062 79.519531 46.285156 C 79.351562 46.644531 79.1875 47.019531 79 47.371094 C 78.914062 47.527344 78.785156 47.664062 78.644531 47.769531 C 78.46875 47.902344 78.261719 47.832031 78.222656 47.609375 C 78.183594 47.410156 78.1875 47.183594 78.246094 46.996094 C 78.421875 46.457031 78.609375 45.914062 78.84375 45.40625 C 79.648438 43.652344 80.410156 41.886719 81.046875 40.070312 C 81.304688 39.335938 81.492188 38.574219 81.773438 37.851562 C 82.148438 36.871094 82.585938 35.910156 83 34.945312 C 83.027344 34.886719 83.113281 34.804688 83.160156 34.816406 C 83.214844 34.820312 83.300781 34.90625 83.3125 34.96875 C 83.339844 35.097656 83.355469 35.242188 83.328125 35.367188 C 83.09375 36.25 82.847656 37.128906 82.597656 38.011719 C 82.539062 38.234375 82.476562 38.457031 82.425781 38.691406 C 82.179688 39.890625 81.933594 41.09375 81.6875 42.289062 C 81.453125 43.441406 81.230469 44.609375 80.960938 45.757812 C 80.808594 46.410156 80.59375 47.046875 80.308594 47.65625 C 80.082031 48.128906 79.777344 48.523438 79.359375 48.828125 C 78.980469 49.101562 78.605469 49.371094 78.167969 49.519531 Z M 78.167969 49.519531 " fill-opacity="1" fill-rule="nonzero"/></g></g></g><g clip-path="url(#e1013f85e3)"><g clip-path="url(#41a15bab5d)"><g clip-path="url(#14cc50c104)"><path fill="#65a30d" d="M 89.359375 16.792969 C 89.453125 16.351562 89.582031 15.917969 89.621094 15.480469 C 89.675781 14.8125 89.683594 14.140625 89.695312 13.472656 C 89.710938 12.171875 89.714844 10.867188 89.726562 9.566406 C 89.726562 9.503906 89.722656 9.429688 89.71875 9.367188 C 89.710938 9.246094 89.796875 9.164062 89.917969 9.179688 C 89.957031 9.1875 90.019531 9.21875 90.03125 9.253906 C 90.039062 9.285156 90.003906 9.367188 89.972656 9.375 C 89.839844 9.425781 89.832031 9.523438 89.832031 9.632812 C 89.835938 10.511719 89.839844 11.394531 89.835938 12.273438 C 89.828125 13.316406 89.84375 14.355469 89.792969 15.390625 C 89.765625 15.890625 89.609375 16.386719 89.492188 16.871094 C 89.421875 17.175781 89.3125 17.472656 89.234375 17.773438 C 89.203125 17.902344 89.164062 18.046875 89.011719 18.019531 C 88.929688 18.003906 88.863281 17.882812 88.804688 17.789062 C 88.484375 17.75 88.335938 17.640625 88.335938 17.398438 C 88.339844 16.933594 88.480469 16.777344 88.9375 16.765625 C 88.976562 14.269531 89.019531 11.773438 89.0625 9.277344 C 89.082031 9.273438 89.101562 9.269531 89.121094 9.265625 C 89.144531 9.320312 89.183594 9.363281 89.1875 9.414062 C 89.214844 9.597656 89.242188 9.785156 89.25 9.972656 C 89.273438 11.648438 89.296875 13.335938 89.308594 15.011719 C 89.308594 15.566406 89.296875 16.121094 89.292969 16.679688 C 89.292969 16.710938 89.296875 16.746094 89.300781 16.777344 C 89.320312 16.785156 89.34375 16.785156 89.359375 16.792969 Z M 89.359375 16.792969 " fill-opacity="1" fill-rule="nonzero"/></g></g></g><g clip-path="url(#ba492cf849)"><g clip-path="url(#b3beae3c40)"><g clip-path="url(#69a4454c12)"><path fill="#65a30d" d="M 87.738281 9.292969 C 87.683594 9.234375 87.644531 9.191406 87.597656 9.144531 C 87.636719 9.121094 87.667969 9.082031 87.703125 9.078125 C 87.785156 9.078125 87.832031 9.101562 87.851562 9.21875 C 88.042969 10.351562 88.042969 11.5 88.046875 12.644531 C 88.050781 13.75 88.058594 14.855469 88.070312 15.964844 C 88.070312 16.203125 88.039062 16.449219 88.066406 16.695312 C 88.144531 16.371094 88.21875 16.035156 88.300781 15.703125 C 88.667969 14.238281 88.574219 12.742188 88.574219 11.246094 C 88.570312 10.582031 88.621094 9.917969 88.648438 9.257812 C 88.65625 9.132812 88.832031 9.042969 88.945312 9.105469 C 89.035156 9.160156 89.039062 9.238281 88.945312 9.265625 C 88.777344 9.320312 88.769531 9.449219 88.769531 9.589844 C 88.761719 10.597656 88.710938 11.597656 88.753906 12.605469 C 88.828125 14.316406 88.578125 15.957031 87.972656 17.550781 C 87.945312 17.617188 87.925781 17.695312 87.886719 17.753906 C 87.847656 17.804688 87.777344 17.835938 87.722656 17.871094 C 87.6875 17.816406 87.636719 17.769531 87.613281 17.710938 C 87.59375 17.671875 87.601562 17.621094 87.597656 17.574219 C 87.53125 17.574219 87.472656 17.574219 87.414062 17.570312 C 87.253906 17.546875 87.167969 17.457031 87.15625 17.285156 C 87.148438 17.121094 87.191406 16.988281 87.367188 16.972656 C 87.652344 16.949219 87.695312 16.765625 87.691406 16.535156 C 87.695312 15.9375 87.722656 15.339844 87.726562 14.742188 C 87.746094 13.292969 87.753906 11.839844 87.761719 10.386719 C 87.761719 10.011719 87.75 9.648438 87.738281 9.292969 Z M 87.738281 9.292969 " fill-opacity="1" fill-rule="nonzero"/></g></g></g><g clip-path="url(#2ff13809a3)"><g clip-path="url(#44c90f34ff)"><g clip-path="url(#ae029d29a6)"><path fill="#65a30d" d="M 90.367188 17 C 90.621094 16.339844 90.824219 15.6875 90.832031 14.988281 C 90.835938 14.363281 90.851562 13.742188 90.839844 13.113281 C 90.8125 11.949219 90.769531 10.777344 90.738281 9.613281 C 90.738281 9.558594 90.722656 9.507812 90.71875 9.460938 C 90.679688 9.167969 90.742188 9.097656 91.039062 9.117188 C 91.085938 9.121094 91.148438 9.15625 91.167969 9.195312 C 91.179688 9.214844 91.136719 9.296875 91.101562 9.3125 C 90.894531 9.378906 90.914062 9.546875 90.917969 9.703125 C 90.925781 10.078125 90.945312 10.449219 90.949219 10.828125 C 90.96875 12.046875 90.96875 13.269531 91 14.488281 C 91.027344 15.535156 90.753906 16.511719 90.371094 17.464844 C 90.320312 17.585938 90.246094 17.707031 90.164062 17.8125 C 90.125 17.863281 90.027344 17.914062 89.980469 17.894531 C 89.839844 17.847656 89.703125 17.773438 89.578125 17.703125 C 89.539062 17.6875 89.511719 17.644531 89.496094 17.605469 C 89.398438 17.375 89.582031 16.925781 89.816406 16.875 C 89.949219 16.835938 89.964844 16.769531 89.976562 16.660156 C 90.195312 15.335938 90.171875 14 90.097656 12.664062 C 90.039062 11.65625 90.0625 10.644531 90.140625 9.632812 C 90.148438 9.550781 90.164062 9.476562 90.214844 9.390625 C 90.222656 9.429688 90.234375 9.46875 90.234375 9.511719 C 90.25 10 90.261719 10.484375 90.289062 10.972656 C 90.335938 11.738281 90.390625 12.515625 90.441406 13.285156 C 90.523438 14.5 90.574219 15.707031 90.375 16.921875 C 90.351562 16.949219 90.351562 16.960938 90.367188 17 Z M 90.367188 17 " fill-opacity="1" fill-rule="nonzero"/></g></g></g><g clip-path="url(#439f74d1e5)"><g clip-path="url(#9baf641a99)"><g clip-path="url(#71d5672f67)"><path fill="#65a30d" d="M 86.644531 19.566406 C 86.640625 19.527344 86.628906 19.511719 86.632812 19.488281 C 86.722656 19.019531 86.8125 18.554688 86.90625 18.09375 C 86.921875 18.050781 86.992188 18.019531 87.03125 17.984375 C 87.0625 18.03125 87.128906 18.074219 87.132812 18.117188 C 87.140625 18.632812 86.976562 19.109375 86.714844 19.546875 C 86.710938 19.554688 86.683594 19.554688 86.644531 19.566406 Z M 86.644531 19.566406 " fill-opacity="1" fill-rule="nonzero"/></g></g></g><g clip-path="url(#57b2e0b066)"><g clip-path="url(#f36fdc4087)"><g clip-path="url(#4f568d245b)"><path fill="#65a30d" d="M 90.453125 18.503906 C 90.574219 18.863281 90.167969 19.691406 89.84375 19.769531 C 90.054688 19.335938 90.253906 18.917969 90.453125 18.503906 Z M 90.453125 18.503906 " fill-opacity="1" fill-rule="nonzero"/></g></g></g><g clip-path="url(#8004ba053c)"><g clip-path="url(#95d87866bc)"><g clip-path="url(#fd5b5ce967)"><path fill="#65a30d" d="M 83.339844 34.390625 C 83.308594 34.359375 83.246094 34.324219 83.246094 34.300781 C 83.292969 34.070312 83.332031 33.835938 83.398438 33.609375 C 83.429688 33.519531 83.554688 33.542969 83.597656 33.636719 C 83.652344 33.765625 83.492188 34.292969 83.339844 34.390625 Z M 83.339844 34.390625 " fill-opacity="1" fill-rule="nonzero"/></g></g></g><g clip-path="url(#1946dd0bb0)"><g clip-path="url(#a8dd4cae27)"><g clip-path="url(#fee74204ba)"><path fill="#65a30d" d="M 90.117188 19.816406 C 90.347656 19.378906 90.566406 18.96875 90.78125 18.542969 C 90.867188 18.839844 90.414062 19.730469 90.117188 19.816406 Z M 90.117188 19.816406 " fill-opacity="1" fill-rule="nonzero"/></g></g></g><g clip-path="url(#8f95690d2a)"><g clip-path="url(#91c61fecc9)"><g clip-path="url(#a4c7b713c6)"><path fill="#65a30d" d="M 89.738281 19.441406 C 89.851562 19.164062 89.933594 18.871094 90.136719 18.613281 C 90.25 18.832031 89.992188 19.367188 89.738281 19.441406 Z M 89.738281 19.441406 " fill-opacity="1" fill-rule="nonzero"/></g></g></g><g clip-path="url(#ff3858bcea)"><g clip-path="url(#7d84152b8e)"><g clip-path="url(#dc67272c83)"><path fill="#65a30d" d="M 87.164062 19.109375 C 87.171875 18.972656 87.175781 18.855469 87.191406 18.753906 C 87.210938 18.640625 87.238281 18.527344 87.273438 18.421875 C 87.28125 18.394531 87.320312 18.367188 87.34375 18.363281 C 87.363281 18.359375 87.398438 18.382812 87.410156 18.398438 C 87.484375 18.539062 87.347656 19.011719 87.164062 19.109375 Z M 87.164062 19.109375 " fill-opacity="1" fill-rule="nonzero"/></g></g></g><g clip-path="url(#a7ebdb8b58)"><g clip-path="url(#3888957460)"><g clip-path="url(#7eb5b3e0ff)"><path fill="#65a30d" d="M 83.773438 33.113281 C 83.664062 33.0625 83.601562 33.054688 83.574219 33.015625 C 83.511719 32.941406 83.582031 32.691406 83.679688 32.660156 C 83.722656 32.644531 83.828125 32.6875 83.828125 32.703125 C 83.820312 32.824219 83.800781 32.945312 83.773438 33.113281 Z M 83.773438 33.113281 " fill-opacity="1" fill-rule="nonzero"/></g></g></g><g clip-path="url(#e0e90349fd)"><g clip-path="url(#b4b90616a6)"><g clip-path="url(#cf66fa41ed)"><path fill="#65a30d" d="M 87.628906 18.9375 C 87.558594 18.808594 87.566406 18.496094 87.644531 18.417969 C 87.664062 18.398438 87.757812 18.40625 87.769531 18.429688 C 87.84375 18.539062 87.753906 18.832031 87.628906 18.9375 Z M 87.628906 18.9375 " fill-opacity="1" fill-rule="nonzero"/></g></g></g><g clip-path="url(#dd88097538)"><g clip-path="url(#c66d5a485c)"><g clip-path="url(#b0a3188d83)"><path fill="#65a30d" d="M 89.8125 18.636719 C 89.878906 18.820312 89.738281 19.078125 89.511719 19.1875 C 89.59375 18.976562 89.648438 18.785156 89.8125 18.636719 Z M 89.8125 18.636719 " fill-opacity="1" fill-rule="nonzero"/><path fill="#65a30d" d="M 89.1875 19.035156 C 89.25 18.921875 89.292969 18.824219 89.351562 18.726562 C 89.363281 18.707031 89.414062 18.707031 89.441406 18.714844 C 89.457031 18.722656 89.480469 18.761719 89.476562 18.785156 C 89.496094 18.890625 89.363281 19.019531 89.1875 19.035156 Z M 89.1875 19.035156 " fill-opacity="1" fill-rule="nonzero"/></g></g></g><g clip-path="url(#df3cf04115)"><g clip-path="url(#a8de949ba4)"><g clip-path="url(#b87aa8b59f)"><path fill="#65a30d" d="M 87.898438 18.84375 C 87.921875 18.722656 87.953125 18.601562 87.980469 18.476562 C 87.984375 18.460938 88.019531 18.449219 88.042969 18.445312 C 88.054688 18.445312 88.078125 18.476562 88.078125 18.488281 C 88.089844 18.628906 88.09375 18.769531 87.976562 18.859375 C 87.953125 18.859375 87.925781 18.851562 87.898438 18.84375 Z M 87.898438 18.84375 " fill-opacity="1" fill-rule="nonzero"/></g></g></g><g clip-path="url(#5eb5923311)"><g clip-path="url(#6dff70ea2f)"><g clip-path="url(#9faf57c5f3)"><path fill="#65a30d" d="M 88.363281 18.582031 C 88.355469 18.660156 88.355469 18.742188 88.34375 18.8125 C 88.339844 18.824219 88.277344 18.820312 88.242188 18.824219 C 88.246094 18.742188 88.246094 18.660156 88.253906 18.578125 C 88.289062 18.578125 88.328125 18.582031 88.363281 18.582031 Z M 88.363281 18.582031 " fill-opacity="1" fill-rule="nonzero"/><path fill="#65a30d" d="M 88.765625 18.660156 C 88.757812 18.726562 88.757812 18.792969 88.742188 18.859375 C 88.738281 18.878906 88.699219 18.890625 88.679688 18.902344 C 88.664062 18.875 88.632812 18.847656 88.636719 18.824219 C 88.648438 18.765625 88.675781 18.707031 88.699219 18.644531 C 88.714844 18.648438 88.738281 18.652344 88.765625 18.660156 Z M 88.765625 18.660156 " fill-opacity="1" fill-rule="nonzero"/></g></g></g></svg>